# xmcd
#
# Track frame offsets: 
#        150
#        14428
#        33401
#        48318
#        62585
#        77185
#        95461
#        112194
#        130358
#        145963
#
# Disc length: 2115 seconds
#
# Revision: 0
# Processed by: cddbd v1.5.2PL0 Copyright (c) Steve Scherf et al.
# Submitted via: ExactAudioCopyFreeDBPlugin 1.0
#
DISCID=8a08410a
DTITLE=Jennifer Peterson-Hind - Give A Girl A Reason
DYEAR=2007
DGENRE=Country
TTITLE0=Good Night Tonight
TTITLE1=Give A Girl A Reason
TTITLE2=All I Have To Give
TTITLE3=Poor Little Fool
TTITLE4=Girl Needs To Cry
TTITLE5=So In Love
TTITLE6=Man Like That
TTITLE7=He Ain't You
TTITLE8=Head Over Heels
TTITLE9=I Can't Help It (If I'm Still In Love With You)
EXTD=
EXTT0=
EXTT1=
EXTT2=
EXTT3=
EXTT4=
EXTT5=
EXTT6=
EXTT7=
EXTT8=
EXTT9=
PLAYORDER=
